#extradata 0:       34, 0xa77c0cd6
#tb 0: 1/44100
#media_type 0: audio
#codec_id 0: flac
#sample_rate 0: 44100
#channel_layout_name 0: stereo
0,          0,          0,     4096,     1323, 0xb9bc0f9a
0,       4096,       4096,     4096,     1254, 0xf7e910bc
0,       8192,       8192,     4096,     1320, 0xe4fe09c9
0,      12288,      12288,     4096,     1280, 0x22e9127e
0,      16384,      16384,     4096,     1331, 0x8bc61bbf
0,      20480,      20480,     4096,     1267, 0x2c4708fa
0,      24576,      24576,     4096,     1282, 0x0438152d
0,      28672,      28672,     4096,     1313, 0x2e79ffa2
0,      32768,      32768,     4096,     1323, 0xb9f70fce
0,      36864,      36864,     4096,     1254, 0xf6f01051
0,      40960,      40960,     4096,     1235, 0xcf181f77, S=1, Skip Samples,       10, 0x047700bf
